<?xml version="1.0" encoding="UTF-8"?>
<svg id="Ebene_1" xmlns="http://www.w3.org/2000/svg" version="1.1" viewBox="0 0 352.9 63.4">
  <!-- Generator: Adobe Illustrator 29.2.0, SVG Export Plug-In . SVG Version: 2.1.0 Build 108)  -->
  <defs>
    <style>
      .st0 {
        fill: #f4951e;
      }

      .st1 {
        fill: #da2c88;
      }

      .st2 {
        fill: #f4951f;
      }

      .st3 {
        fill: #23431e;
      }

      .st4 {
        fill: #1c592a;
      }

      .st5 {
        fill: #fdc644;
      }

      .st6 {
        fill: #c3124f;
      }

      .st7 {
        fill: #1d1d1b;
      }

      .st8 {
        fill: #dc1715;
      }

      .st9 {
        fill: #de1c24;
      }

      .st10 {
        fill: #fcc239;
      }

      .st11 {
        fill: #21934f;
      }

      .st12 {
        fill: #1e71b8;
      }

      .st13 {
        fill: #29327b;
      }

      .st14 {
        fill: #f59a24;
      }

      .st15 {
        fill: #de1c21;
      }
    </style>
  </defs>
  <g>
    <path class="st12" d="M12.4,53.7h0s0,0,0,0h0M2.3,16.8v31h0s10.1-5.8,10.1-5.8v-19.4h0s-10.1-5.8-10.1-5.8"/>
    <path class="st12" d="M2.3,47.9h0s10.1,5.8,10.1,5.8h0s-10.1-5.8-10.1-5.8M19.1,38.2l-6.7,3.9v11.7l6.7-3.9v-11.7M29.2,32.4v11.7l10.1-5.8h0s0,0,0,0h0s-10.1-5.8-10.1-5.8"/>
    <polyline class="st13" points="12.4 42 2.3 47.9 2.3 47.9 12.4 53.7 12.4 53.7 12.4 42"/>
    <path class="st1" d="M56,16.8l-10.1,5.8v19.4h0s10.1,5.8,10.1,5.8v-31M45.9,11h0s0,0,0,0h0"/>
    <path class="st10" d="M39.3,26.5l-10.1,5.8h0s10.1,5.8,10.1,5.8v-11.7M39.3,7.1l-10.1,5.8v7.7l10.1-5.8v-7.7M29.2,1.3h0s0,0,0,0h0"/>
    <polyline class="st4" points="29.2 32.3 29.2 32.4 39.3 38.2 39.3 38.2 39.3 38.2 29.2 32.3"/>
    <path class="st1" d="M29.2,20.7l-10.1,5.8h0s0,0,0,0h0s10.1,5.8,10.1,5.8v-11.7M45.9,11l-6.7,3.9v11.7l6.7-3.9v-11.7M45.9,11h0s10.1,5.8,10.1,5.8h0s0,0,0,0l-10.1-5.8"/>
    <polyline class="st6" points="45.9 11 45.9 11 45.9 22.7 56 16.8 56 16.8 45.9 11"/>
    <polyline class="st15" points="39.3 14.8 29.2 20.7 29.2 32.3 29.2 32.3 29.2 32.3 39.3 26.5 39.3 14.8"/>
    <path class="st5" d="M29.2,44l-10.1,5.8v7.7h0s10.1-5.8,10.1-5.8v-7.7M19.1,26.5v11.7l10.1-5.8h0s-10.1-5.8-10.1-5.8"/>
    <polyline class="st11" points="29.2 32.3 19.1 38.2 19.1 49.8 29.2 44 29.2 32.4 29.2 32.3"/>
    <polyline class="st0" points="29.2 32.3 29.2 32.3 29.2 32.3 29.2 32.3 29.2 32.3 29.2 32.3 29.2 32.3"/>
    <polyline class="st3" points="29.2 32.3 29.2 32.3 29.2 32.3 29.2 32.4 29.2 32.3 29.2 32.3"/>
    <polyline class="st9" points="19.1 26.5 19.1 26.5 19.1 26.5 29.2 32.3 29.2 32.3 19.1 26.5"/>
    <polyline class="st8" points="29.2 32.3 29.2 32.3 29.2 32.3 29.2 32.3 29.2 32.3 29.2 32.3"/>
    <polyline class="st5" points="29.2 63.4 29.2 63.4 29.2 63.4 29.2 63.4"/>
    <polyline class="st5" points="45.9 42 29.2 51.7 29.2 63.4 56 47.9 56 47.9 56 47.9 56 47.9 45.9 42 45.9 42"/>
    <polyline class="st9" points="45.9 42 45.9 42 45.9 42 56 47.9 56 47.9 45.9 42"/>
    <polyline class="st5" points="19.1 57.5 19.1 57.6 29.2 63.4 29.2 63.4 19.1 57.5"/>
    <polyline class="st14" points="29.2 51.7 19.1 57.5 19.1 57.5 29.2 63.4 29.2 63.4 29.2 51.7"/>
    <path class="st10" d="M29.2,1.3L2.3,16.8h0s0,0,0,0h0s10.1,5.8,10.1,5.8l16.8-9.7V1.3M29.2,1.3h0s10.1,5.8,10.1,5.8h0s0,0,0,0L29.2,1.3"/>
    <polyline class="st4" points="2.3 16.8 2.3 16.8 2.3 16.8 12.4 22.7 12.4 22.7 12.4 22.7 2.3 16.8"/>
    <polyline class="st2" points="29.2 1.3 29.2 1.3 29.2 13 39.3 7.1 39.3 7.1 29.2 1.3"/>
  </g>
  <g>
    <path class="st7" d="M71.9,53.6V10.9h15.3c5.5,0,9.7,1,12.5,3,2.9,2,4.3,4.9,4.3,8.8s-.5,4.1-1.5,5.7c-1,1.6-2.5,2.7-4.5,3.5,2.2.6,3.9,1.7,5.1,3.3,1.2,1.6,1.8,3.6,1.8,5.9,0,4.2-1.3,7.3-4,9.4-2.6,2.1-6.6,3.2-11.8,3.2h-17.3ZM82.2,28.7h5.4c2.2,0,3.8-.4,4.8-1.2,1-.8,1.4-2,1.4-3.6s-.5-3.1-1.6-3.9c-1-.8-2.7-1.2-5-1.2h-5v9.9ZM82.2,35.4v10.2h6.7c1.9,0,3.3-.4,4.3-1.3s1.5-2,1.5-3.6c0-3.6-1.8-5.3-5.3-5.4h-7.2Z"/>
    <path class="st7" d="M125.5,54.1c-4.9,0-8.8-1.5-11.8-4.4-3-2.9-4.5-6.7-4.5-11.3v-.8c0-3.2.6-6.1,1.8-8.6,1.2-2.5,3-4.4,5.3-5.8,2.3-1.4,5-2,8.2-2s8,1.4,10.5,4.1c2.6,2.8,3.9,6.6,3.9,11.6v3.8h-19.6c.4,1.8,1.1,3.2,2.3,4.2,1.2,1,2.7,1.5,4.6,1.5,3.1,0,5.6-1.1,7.3-3.3l4.5,5.3c-1.2,1.7-3,3.1-5.2,4.1s-4.7,1.5-7.3,1.5ZM124.4,28.9c-2.9,0-4.6,1.9-5.2,5.7h10v-.8c0-1.6-.4-2.8-1.2-3.7-.8-.9-2-1.3-3.6-1.3Z"/>
    <path class="st7" d="M159.5,44.6c0-.8-.4-1.5-1.3-2-.9-.5-2.5-1-5-1.6-2.5-.5-4.5-1.3-6.1-2.2-1.6-.9-2.8-2-3.7-3.2-.8-1.3-1.3-2.7-1.3-4.4,0-2.9,1.2-5.3,3.6-7.2,2.4-1.9,5.5-2.8,9.4-2.8s7.5.9,10.1,2.8c2.5,1.9,3.8,4.4,3.8,7.5h-9.9c0-2.5-1.3-3.8-4-3.8s-1.9.3-2.6.9c-.7.6-1.1,1.3-1.1,2.2s.4,1.6,1.3,2.1c.9.5,2.2,1,4.1,1.3,1.9.4,3.5.8,5,1.3,4.8,1.6,7.1,4.6,7.1,8.8s-1.3,5.2-3.9,7.1c-2.6,1.8-5.9,2.7-10,2.7s-5.1-.5-7.3-1.5c-2.1-1-3.8-2.3-5-4-1.2-1.7-1.8-3.4-1.8-5.3h9.2c0,1.5.5,2.5,1.5,3.2s2.1,1,3.6,1,2.4-.3,3-.8c.7-.5,1-1.3,1-2.1Z"/>
    <path class="st7" d="M185.1,14v7.9h5.2v6.9h-5.2v14.5c0,1.2.2,2,.6,2.5.4.5,1.3.7,2.5.7s1.8,0,2.5-.2v7.1c-1.8.6-3.6.8-5.6.8-3.4,0-5.9-.8-7.5-2.4-1.6-1.6-2.4-4-2.4-7.3v-15.7h-4v-6.9h4v-7.9h9.9Z"/>
    <path class="st7" d="M200,53.6h-1.6V10.9h1.6v42.7Z"/>
    <path class="st7" d="M213.7,29.2c1-2.5,2.6-4.4,4.6-5.8,2-1.4,4.2-2.1,6.7-2.1s5.9,1,7.6,2.9c1.7,1.9,2.5,4.8,2.5,8.7v20.7h-1.6v-20.7c0-3.4-.7-5.9-2.1-7.5-1.4-1.6-3.5-2.4-6.5-2.4s-5.1,1-7.1,2.9c-2,1.9-3.4,4.4-4.1,7.5v20.3h-1.6v-31.7h1.6v7.4Z"/>
    <path class="st7" d="M264.5,45.8c0-3.8-3.3-6.5-9.8-7.9-3.9-.8-6.7-1.9-8.2-3.2-1.5-1.3-2.3-3.1-2.3-5.4s1-4.2,2.9-5.7c2-1.5,4.5-2.3,7.7-2.3s6.2.8,8.2,2.4c2.1,1.6,3.1,3.8,3.1,6.6h-1.6c0-2.1-.9-3.9-2.7-5.3-1.8-1.4-4.1-2.1-7-2.1s-5,.6-6.6,1.8c-1.6,1.2-2.4,2.7-2.4,4.5s.3,2.5.9,3.4c.6.8,1.6,1.5,3,2.2,1.4.7,3.4,1.3,6,1.9,2.6.6,4.7,1.3,6.2,2.1s2.6,1.8,3.3,2.9c.7,1.1,1,2.5,1,4.1,0,2.5-1,4.5-3.1,6s-4.7,2.3-8.1,2.3-6.4-.8-8.6-2.4c-2.2-1.6-3.3-3.7-3.3-6.2h1.6c.2,2.2,1.1,4,2.9,5.2,1.8,1.2,4.3,1.9,7.3,1.9s5.1-.7,6.9-2,2.7-2.9,2.7-4.8Z"/>
    <path class="st7" d="M296,53.6v-5.1c-.9,1.8-2.3,3.1-4.1,4.2s-4.1,1.5-6.8,1.5-6-1-7.8-3-2.6-5-2.7-8.8v-20.4h1.6v20.5c0,3.4.8,5.9,2.3,7.6s3.7,2.6,6.5,2.6,5.5-.7,7.4-2.1c1.9-1.4,3.1-3.5,3.6-6.3v-22.3h1.6v31.7h-1.6Z"/>
    <path class="st7" d="M321.6,23l-2.1-.2c-2.7,0-5,.9-6.8,2.6-1.8,1.7-3,4.2-3.6,7.3v20.8h-1.6v-31.7h1.6v6.6c.9-2.2,2.1-4,3.9-5.2s3.9-1.9,6.5-1.9,1.7.1,2.2.3l-.2,1.4Z"/>
    <path class="st7" d="M338.6,54.1c-2.6,0-4.9-.7-7-2.1s-3.8-3.3-5-5.7-1.8-5.1-1.8-8v-1.3c0-2.9.6-5.6,1.8-8.1,1.2-2.4,2.8-4.3,4.8-5.7,2.1-1.4,4.3-2.1,6.7-2.1,3.5,0,6.4,1.3,8.7,3.8s3.4,5.8,3.4,9.9v1.7h-23.8v1.7c0,2.6.5,5,1.6,7.2,1.1,2.2,2.6,3.9,4.5,5.2,1.9,1.2,4,1.9,6.2,1.9s3.9-.4,5.4-1.1,2.8-1.8,4-3.3l1.1.8c-2.4,3.4-5.9,5.1-10.5,5.1ZM338,22.8c-3.1,0-5.7,1.1-7.9,3.4-2.1,2.3-3.4,5.2-3.8,8.8h22.1v-.4c0-2.1-.5-4.1-1.4-6s-2.2-3.3-3.8-4.3-3.4-1.5-5.3-1.5Z"/>
  </g>
</svg>